<svg xmlns="http://www.w3.org/2000/svg" version="1.1" xmlns:xlink="http://www.w3.org/1999/xlink" xmlns:svgjs="http://svgjs.dev/svgjs" width="1000" height="623" viewBox="0 0 1000 623"><g transform="matrix(1,0,0,1,-0.6060606060606233,0.2522267206477409)"><svg viewBox="0 0 396 247" data-background-color="#ffffff" preserveAspectRatio="xMidYMid meet" height="623" width="1000" xmlns="http://www.w3.org/2000/svg" xmlns:xlink="http://www.w3.org/1999/xlink"><g id="tight-bounds" transform="matrix(1,0,0,1,0.2400000000000091,-0.09999999999999432)"><svg viewBox="0 0 395.52 247.2" height="247.2" width="395.52"><g><svg></svg></g><g><svg viewBox="0 0 395.52 247.2" height="247.2" width="395.52"><g><g><path d="M228.347 247.2c-19.91 0-37.977-3.627-54.199-10.882l112.351 0c-14.23 7.255-33.614 10.882-58.152 10.882zM228.705 0c24.325 0 43.591 3.627 57.798 10.882l-113.327 0c16.318-7.255 34.828-10.882 55.529-10.882z" fill="#1ebbd7" fill-rule="nonzero" stroke="none" stroke-width="1" stroke-linecap="butt" stroke-linejoin="miter" stroke-miterlimit="10" stroke-dasharray="" stroke-dashoffset="0" font-family="none" font-weight="none" font-size="none" text-anchor="none" style="mix-blend-mode: normal" data-fill-palette-color="tertiary"></path></g></g><g transform="matrix(1,0,0,1,8.173510784169395,37.08)"><svg viewBox="0 0 379.1729784316612 173.04" height="173.04" width="379.1729784316612"><g><svg viewBox="0 0 395.52 180.50015347371374" height="173.04" width="379.1729784316612"><g><svg viewBox="0 0 395.52 180.50015347371374" height="180.50015347371374" width="395.52"><g id="textblocktransform"><svg viewBox="0 0 395.52 180.50015347371374" height="180.50015347371374" width="395.52" id="textblock"><g><svg viewBox="0 0 395.52 115.75786531130873" height="115.75786531130873" width="395.52"><g transform="matrix(1,0,0,1,0,0)"><svg width="395.52" viewBox="2 -34.15 118.04 34.55" height="115.75786531130873" data-palette-color="#1ebbd7"><path d="M28.15-9.05L28.15-1.5Q25.1 0.4 19.35 0.4L19.35 0.4Q11.95 0.4 6.98-4.38 2-9.15 2-16.75L2-16.75Q2-24.45 6.83-29.3 11.65-34.15 19.4-34.15L19.4-34.15Q25.1-34.15 28.15-32.25L28.15-32.25 28.15-24.85Q24.4-27.15 19.8-27.15L19.8-27.15Q15.75-27.15 13-24.33 10.25-21.5 10.25-16.75L10.25-16.75Q10.25-12.1 13-9.38 15.75-6.65 20.1-6.65L20.1-6.65Q24.8-6.65 28.15-9.05L28.15-9.05ZM44.1-14.3L44.1-14.3 43.75-13.1 51.85-13.1 51.5-14.3Q50.05-19.2 49.12-22.65 48.2-26.1 48-27.1L48-27.1 47.8-28.1Q47.4-25.35 44.1-14.3ZM41.9-6.9L39.85 0 31.8 0 43.05-33.7 52.75-33.7 64 0 55.75 0 53.7-6.9 41.9-6.9ZM79.9-27.45L79.9-27.45 76.1-27.45 76.1-17.95 79.75-17.95Q84.75-17.95 84.75-22.85L84.75-22.85Q84.75-25 83.45-26.23 82.15-27.45 79.9-27.45ZM76.1-11.7L76.1 0 68.4 0 68.4-33.7 80.05-33.7Q85.7-33.7 89.12-30.7 92.55-27.7 92.55-22.9L92.55-22.9Q92.55-15.7 86.4-12.95L86.4-12.95 94.95 0 85.75 0 78.45-11.7 76.1-11.7ZM120.04-9.8L120.04-9.8Q120.04-5.25 116.69-2.43 113.34 0.4 107.79 0.4L107.79 0.4Q101.84 0.4 98.09-1.7L98.09-1.7 98.09-9.45Q102.64-6.15 107.79-6.15L107.79-6.15Q109.54-6.15 110.69-7.08 111.84-8 111.84-9.5L111.84-9.5Q111.84-10 111.69-10.45 111.54-10.9 111.14-11.3 110.74-11.7 110.37-11.98 109.99-12.25 109.27-12.63 108.54-13 108.04-13.25 107.54-13.5 106.57-13.95 105.59-14.4 104.99-14.65L104.99-14.65Q101.74-16.15 99.77-18.35 97.79-20.55 97.79-24.2L97.79-24.2Q97.79-28.55 100.99-31.23 104.19-33.9 109.84-33.9L109.84-33.9Q114.89-33.9 118.54-32.2L118.54-32.2 118.54-25Q114.49-27.35 110.14-27.35L110.14-27.35Q108.19-27.35 107.17-26.55 106.14-25.75 106.14-24.5 106.14-23.25 107.39-22.28 108.64-21.3 111.14-20.2L111.14-20.2Q112.69-19.5 113.72-18.98 114.74-18.45 116.07-17.53 117.39-16.6 118.17-15.58 118.94-14.55 119.49-13.05 120.04-11.55 120.04-9.8Z" opacity="1" transform="matrix(1,0,0,1,0,0)" fill="#1ebbd7" class="wordmark-text-0" data-fill-palette-color="primary" id="text-0"></path></svg></g></svg></g><g transform="matrix(1,0,0,1,0,143.08551912254126)"><svg viewBox="0 0 232.209792 37.41463435117248" height="37.41463435117248" width="232.209792"><g transform="matrix(1,0,0,1,0,0)"><svg width="232.209792" viewBox="6.71 -34.94 298.78000000000003 48.15" height="37.41463435117248" data-palette-color="#4b91f1"><path d="M24.07-34.94L24.07-34.94Q28.81-34.94 33.5-33.08L33.5-33.08 32.23-29.64Q27.49-31.27 23.95-31.27L23.95-31.27Q21.02-31.27 18.52-30.11 16.02-28.96 14.37-27.01 12.72-25.07 11.79-22.57 10.86-20.07 10.86-17.33L10.86-17.33Q10.86-14.5 11.85-11.95 12.84-9.4 14.62-7.48 16.41-5.57 19.06-4.44 21.7-3.32 24.85-3.32L24.85-3.32Q28.61-3.32 32.69-4.79L32.69-4.79 33.96-1.71Q28.86 0.49 23.8 0.49L23.8 0.49Q20.68 0.49 17.94-0.42 15.21-1.32 13.17-2.94 11.13-4.57 9.67-6.79 8.2-9.01 7.46-11.68 6.71-14.36 6.71-17.31L6.71-17.31Q6.71-22.31 8.8-26.29 10.89-30.27 14.87-32.6 18.85-34.94 24.07-34.94ZM47.8-24.58L47.8-24.58Q50.49-24.58 52.35-23.96 54.22-23.34 55.23-22.14 56.25-20.95 56.69-19.48 57.13-18.02 57.13-16.11L57.13-16.11 57.13 0 54.29 0 53.37-2.2Q50.41 0.49 46.58 0.49L46.58 0.49Q43.16 0.49 40.79-1.57 38.43-3.64 38.43-6.4L38.43-6.4Q38.43-7.86 38.96-9.03 39.5-10.21 40.51-10.99 41.53-11.77 42.82-12.32 44.11-12.87 45.83-13.16 47.56-13.45 49.29-13.57 51.02-13.7 53.1-13.7L53.1-13.7 53.1-15.6Q53.1-16.43 53.04-17.04 52.98-17.65 52.63-18.51 52.29-19.36 51.71-19.91 51.12-20.46 49.95-20.86 48.78-21.26 47.17-21.26L47.17-21.26Q44.68-21.26 40.72-20.17L40.72-20.17 39.96-23.1Q43.97-24.58 47.8-24.58ZM53.1-5.13L53.1-10.67 51.61-10.67Q50.22-10.67 49.19-10.62 48.17-10.57 46.79-10.34 45.41-10.11 44.53-9.69 43.65-9.28 43.03-8.48 42.4-7.69 42.4-6.59L42.4-6.59Q42.4-5.05 43.96-3.86 45.51-2.66 47.65-2.66L47.65-2.66Q50.8-2.66 53.1-5.13L53.1-5.13ZM68.72-24.12L69.48-22.31Q72.53-24.58 76.22-24.58L76.22-24.58Q78.75-24.58 80.83-23.63L80.83-23.63 79.61-20.43Q77.7-21.17 75.65-21.17L75.65-21.17Q72.6-21.17 69.92-19.48L69.92-19.48 69.92 0 65.91 0 65.91-24.12 68.72-24.12ZM101.82 0L101.82-34.69 105.97-34.69 105.97-3.64 121.55-3.64 121.55 0 101.82 0ZM126.43-30.08L126.43-34.69 131.16-34.69 131.16-30.08 126.43-30.08ZM126.79 0L126.79-24.12 130.8-24.12 130.8 0 126.79 0ZM138.36-11.5L138.36-11.5Q138.36-14.36 139.05-16.64 139.73-18.92 140.87-20.37 142-21.83 143.54-22.79 145.08-23.75 146.69-24.16 148.3-24.56 150.06-24.56L150.06-24.56Q153.53-24.56 156.82-23.12L156.82-23.12 155.84-20.19Q153.13-21.12 150.55-21.12L150.55-21.12Q149.28-21.12 148.15-20.89 147.03-20.65 145.92-20.04 144.81-19.43 144.02-18.47 143.22-17.5 142.73-15.94 142.25-14.38 142.25-12.35L142.25-12.35Q142.25-10.13 142.76-8.44 143.27-6.74 144.1-5.69 144.93-4.64 146.09-3.98 147.25-3.32 148.43-3.06 149.62-2.81 150.99-2.81L150.99-2.81Q153.28-2.81 155.58-3.61L155.58-3.61 156.55-0.85Q153.09 0.49 149.59 0.49L149.59 0.49Q147.98 0.49 146.51 0.17 145.03-0.15 143.5-0.99 141.98-1.83 140.87-3.13 139.76-4.42 139.06-6.58 138.36-8.74 138.36-11.5ZM174.4-24.58L174.4-24.58Q176.15-24.58 177.56-24.16 178.96-23.73 179.89-23.07 180.82-22.41 181.49-21.35 182.16-20.29 182.51-19.3 182.87-18.31 183.06-16.92 183.26-15.53 183.31-14.5 183.36-13.48 183.36-12.08L183.36-12.08 183.36-10.18 166.78-10.18Q166.78-8.86 167.38-7.56 167.98-6.25 169.06-5.16 170.15-4.08 171.92-3.39 173.69-2.71 175.84-2.71L175.84-2.71Q178.38-2.71 181.33-3.59L181.33-3.59 182.04-0.85Q178.11 0.49 174.32 0.49L174.32 0.49Q171.66 0.49 169.6-0.22 167.54-0.93 166.28-2.06 165.02-3.2 164.22-4.79 163.41-6.37 163.11-7.95 162.8-9.52 162.8-11.28L162.8-11.28Q162.8-13.99 163.46-16.24 164.12-18.48 165.24-20.01 166.36-21.53 167.87-22.58 169.37-23.63 171.02-24.11 172.66-24.58 174.4-24.58ZM173.54-21.12L173.54-21.12Q171.39-21.12 169.84-19.93 168.29-18.75 167.59-16.99 166.88-15.23 166.88-13.21L166.88-13.21 179.47-13.21Q179.47-21.12 173.54-21.12ZM190.92 0L190.92-24.12 193.73-24.12 194.61-22.07Q199.27-24.61 203.11-24.61L203.11-24.61Q205.08-24.61 206.55-23.99 208.01-23.36 208.82-22.42 209.62-21.48 210.1-20.06 210.58-18.63 210.71-17.33 210.84-16.04 210.84-14.38L210.84-14.38 210.84 0 206.84 0 206.84-14.65Q206.84-21 201.37-21L201.37-21Q198.54-21 194.93-19.12L194.93-19.12 194.93 0 190.92 0ZM218.41-11.5L218.41-11.5Q218.41-14.36 219.09-16.64 219.78-18.92 220.91-20.37 222.05-21.83 223.59-22.79 225.12-23.75 226.74-24.16 228.35-24.56 230.1-24.56L230.1-24.56Q233.57-24.56 236.87-23.12L236.87-23.12 235.89-20.19Q233.18-21.12 230.59-21.12L230.59-21.12Q229.32-21.12 228.2-20.89 227.08-20.65 225.97-20.04 224.86-19.43 224.06-18.47 223.27-17.5 222.78-15.94 222.29-14.38 222.29-12.35L222.29-12.35Q222.29-10.13 222.8-8.44 223.32-6.74 224.15-5.69 224.98-4.64 226.14-3.98 227.3-3.32 228.48-3.06 229.67-2.81 231.03-2.81L231.03-2.81Q233.33-2.81 235.62-3.61L235.62-3.61 236.6-0.85Q233.13 0.49 229.64 0.49L229.64 0.49Q228.03 0.49 226.55 0.17 225.08-0.15 223.55-0.99 222.02-1.83 220.91-3.13 219.8-4.42 219.11-6.58 218.41-8.74 218.41-11.5ZM243.7-30.08L243.7-34.69 248.44-34.69 248.44-30.08 243.7-30.08ZM244.07 0L244.07-24.12 248.07-24.12 248.07 0 244.07 0ZM256.86 0L256.86-24.12 259.66-24.12 260.54-22.07Q265.21-24.61 269.04-24.61L269.04-24.61Q271.02-24.61 272.48-23.99 273.95-23.36 274.75-22.42 275.56-21.48 276.03-20.06 276.51-18.63 276.64-17.33 276.78-16.04 276.78-14.38L276.78-14.38 276.78 0 272.78 0 272.78-14.65Q272.78-21 267.31-21L267.31-21Q264.47-21 260.86-19.12L260.86-19.12 260.86 0 256.86 0ZM295.5-24.61L295.5-24.61Q298.38-24.61 302.17-22.68L302.17-22.68 302.68-24.12 305.49-24.12 305.49 1.51Q305.49 2.25 305.44 2.93 305.39 3.61 305.15 4.86 304.9 6.1 304.46 7.13 304.02 8.15 303.13 9.34 302.24 10.52 301.03 11.33 299.82 12.13 297.91 12.67 295.99 13.21 293.62 13.21L293.62 13.21Q289.89 13.21 286.15 11.65L286.15 11.65 287.27 8.74Q290.28 9.86 293.11 9.86L293.11 9.86Q301.48 9.86 301.48 0.61L301.48 0.61 301.48-1.17Q298.33 0.49 295.11 0.49L295.11 0.49Q293.55 0.49 292.06 0.09 290.57-0.32 289.14-1.26 287.71-2.2 286.65-3.6 285.59-5 284.94-7.17 284.3-9.33 284.3-11.99L284.3-11.99Q284.3-14.79 285.08-17.05 285.86-19.31 287.05-20.68 288.25-22.05 289.8-22.97 291.35-23.9 292.77-24.26 294.18-24.61 295.5-24.61ZM295.75-21.36L295.75-21.36Q292.35-21.36 290.28-18.92 288.2-16.48 288.2-12.45L288.2-12.45Q288.2-9.77 289.06-7.62 289.91-5.47 291.77-4.14 293.62-2.81 296.23-2.81L296.23-2.81Q298.9-2.81 301.48-4.2L301.48-4.2 301.48-20Q298.14-21.36 295.75-21.36Z" opacity="1" transform="matrix(1,0,0,1,0,0)" fill="#4b91f1" class="slogan-text-1" data-fill-palette-color="secondary" id="text-1"></path></svg></g></svg></g></svg></g></svg></g></svg></g></svg></g></svg></g><defs></defs></svg><rect width="395.52" height="247.2" fill="none" stroke="none" visibility="hidden"></rect></g></svg></g></svg>